<?xml version="1.0" encoding="UTF-8"?>
<svg xmlns="http://www.w3.org/2000/svg" xmlns:xlink="http://www.w3.org/1999/xlink" width="16px" height="16px" viewBox="0 0 16 16" version="1.1">
<g id="surface1">
<path style=" stroke:none;fill-rule:nonzero;fill:rgb(0%,0%,0%);fill-opacity:1;" d="M 8.800781 0.5625 C 8.65625 0.21875 8.34375 0 8.003906 0 C 7.660156 0 7.355469 0.21875 7.203125 0.5625 L 5.417969 4.699219 L 1.425781 5.359375 C 1.09375 5.417969 0.816406 5.675781 0.714844 6.039062 C 0.609375 6.394531 0.695312 6.796875 0.933594 7.058594 L 3.828125 10.28125 L 3.144531 14.832031 C 3.089844 15.207031 3.230469 15.589844 3.503906 15.8125 C 3.777344 16.035156 4.140625 16.0625 4.441406 15.886719 L 8.007812 13.742188 L 11.570312 15.886719 C 11.867188 16.0625 12.234375 16.039062 12.507812 15.8125 C 12.785156 15.585938 12.921875 15.207031 12.867188 14.832031 L 12.179688 10.28125 L 15.078125 7.058594 C 15.3125 6.796875 15.398438 6.394531 15.296875 6.039062 C 15.1875 5.675781 14.914062 5.417969 14.578125 5.359375 L 10.589844 4.699219 Z M 8.800781 0.5625 "/>
</g>
</svg>
